<svg id="visual" viewBox="0 0 900 600" width="900" height="600" xmlns="http://www.w3.org/2000/svg" xmlns:xlink="http://www.w3.org/1999/xlink" version="1.1"><path d="M0 199L13.7 199C27.3 199 54.7 199 82 205C109.3 211 136.7 223 163.8 230C191 237 218 239 245.2 228C272.3 217 299.7 193 327 185C354.3 177 381.7 185 409 192C436.3 199 463.7 205 491 214C518.3 223 545.7 235 573 219C600.3 203 627.7 159 654.8 140C682 121 709 127 736.2 128C763.3 129 790.7 125 818 118C845.3 111 872.7 101 886.3 96L900 91L900 0L886.3 0C872.7 0 845.3 0 818 0C790.7 0 763.3 0 736.2 0C709 0 682 0 654.8 0C627.7 0 600.3 0 573 0C545.7 0 518.3 0 491 0C463.7 0 436.3 0 409 0C381.7 0 354.3 0 327 0C299.7 0 272.3 0 245.2 0C218 0 191 0 163.8 0C136.7 0 109.3 0 82 0C54.7 0 27.3 0 13.7 0L0 0Z" fill="#6198ff"></path><path d="M0 421L13.7 416C27.3 411 54.7 401 82 387C109.3 373 136.7 355 163.8 352C191 349 218 361 245.2 367C272.3 373 299.7 373 327 369C354.3 365 381.7 357 409 356C436.3 355 463.7 361 491 376C518.3 391 545.7 415 573 422C600.3 429 627.7 419 654.8 421C682 423 709 437 736.2 425C763.3 413 790.7 375 818 360C845.3 345 872.7 353 886.3 357L900 361L900 89L886.3 94C872.7 99 845.3 109 818 116C790.7 123 763.3 127 736.2 126C709 125 682 119 654.8 138C627.7 157 600.3 201 573 217C545.7 233 518.3 221 491 212C463.7 203 436.3 197 409 190C381.7 183 354.3 175 327 183C299.7 191 272.3 215 245.2 226C218 237 191 235 163.8 228C136.7 221 109.3 209 82 203C54.7 197 27.3 197 13.7 197L0 197Z" fill="#2d77ff"></path><path d="M0 487L13.7 488C27.3 489 54.7 491 82 491C109.3 491 136.7 489 163.8 498C191 507 218 527 245.2 523C272.3 519 299.7 491 327 478C354.3 465 381.7 467 409 477C436.3 487 463.7 505 491 512C518.3 519 545.7 515 573 505C600.3 495 627.7 479 654.8 485C682 491 709 519 736.2 521C763.3 523 790.7 499 818 485C845.3 471 872.7 467 886.3 465L900 463L900 359L886.3 355C872.7 351 845.3 343 818 358C790.7 373 763.3 411 736.2 423C709 435 682 421 654.8 419C627.7 417 600.3 427 573 420C545.7 413 518.3 389 491 374C463.7 359 436.3 353 409 354C381.7 355 354.3 363 327 367C299.7 371 272.3 371 245.2 365C218 359 191 347 163.8 350C136.7 353 109.3 371 82 385C54.7 399 27.3 409 13.7 414L0 419Z" fill="#005de8"></path><path d="M0 601L13.7 601C27.3 601 54.7 601 82 601C109.3 601 136.7 601 163.8 601C191 601 218 601 245.2 601C272.3 601 299.7 601 327 601C354.3 601 381.7 601 409 601C436.3 601 463.7 601 491 601C518.3 601 545.7 601 573 601C600.3 601 627.7 601 654.8 601C682 601 709 601 736.2 601C763.3 601 790.7 601 818 601C845.3 601 872.7 601 886.3 601L900 601L900 461L886.3 463C872.7 465 845.3 469 818 483C790.7 497 763.3 521 736.2 519C709 517 682 489 654.8 483C627.7 477 600.3 493 573 503C545.7 513 518.3 517 491 510C463.7 503 436.3 485 409 475C381.7 465 354.3 463 327 476C299.7 489 272.3 517 245.2 521C218 525 191 505 163.8 496C136.7 487 109.3 489 82 489C54.7 489 27.3 487 13.7 486L0 485Z" fill="#004cbb"></path></svg>