<svg id="visual" viewBox="0 0 1980 1080" width="1980" height="1080" xmlns="http://www.w3.org/2000/svg" xmlns:xlink="http://www.w3.org/1999/xlink" version="1.1">
  <rect x="0" y="0" width="1980" height="1080" fill="#2048F3"></rect>
  <defs>
    <linearGradient id="grad1_0" x1="45.5%" y1="0%" x2="100%" y2="100%">
      <stop offset="13.333333333333334%" stop-color="#2048f3" stop-opacity="1"></stop>
      <stop offset="86.66666666666667%" stop-color="#2048f3" stop-opacity="1"></stop>
    </linearGradient>
  </defs>
  <defs>
    <linearGradient id="grad2_0" x1="0%" y1="0%" x2="54.5%" y2="100%">
      <stop offset="13.333333333333334%" stop-color="#2048f3" stop-opacity="1"></stop>
      <stop offset="86.66666666666667%" stop-color="#2048f3" stop-opacity="1"></stop>
    </linearGradient>
  </defs>
  <g transform="translate(1980, 0)">
    <path d="M0 972C-137.8 968.7 -275.7 965.4 -372 898C-468.3 830.6 -523 699.1 -603.9 603.9C-684.7 508.6 -791.7 449.7 -857.4 355.1C-923.1 260.5 -947.5 130.3 -972 0L0 0Z" fill="#0826BA"></path>
  </g>
  <g transform="translate(0, 1080)">
    <path d="M0 -972C115.2 -938.8 230.3 -905.6 359.3 -867.5C488.4 -829.4 631.3 -786.5 687.3 -687.3C743.4 -588.1 712.6 -432.7 745.6 -308.8C778.5 -184.9 875.3 -92.5 972 0L0 0Z" fill="#0826BA"></path>
  </g>
</svg>
